<svg id="OBJECTS" xmlns="http://www.w3.org/2000/svg" viewBox="0 0 400.47 252.01">
  <defs>
    <style>
      .cls-1 {
        fill: #6cdd6c;
      }

      .cls-2 {
        fill: #50aa50;
      }

      .cls-3 {
        fill: #405b91;
      }

      .cls-4 {
        fill: #fff;
      }

      .cls-5 {
        fill: #415b91;
      }

      .cls-6, .cls-7 {
        fill: #b6d0fb;
      }

      .cls-6 {
        fill-rule: evenodd;
      }

      .cls-8 {
        fill: #3f5b91;
      }

      .cls-9 {
        fill: #d7e7ff;
      }
    </style>
  </defs>
  <title>Under Construction</title>
  <g>
    <g>
      <g>
        <path class="cls-1" d="M267.9,242.9a5.87,5.87,0,0,0-3.54-4,3.63,3.63,0,0,0-4.52,2.05c-1.62-1.34-4.09-.27-5.39,1.38-2.1,2.68-.48,7.07-.13,7.35a2.77,2.77,0,0,0,1.4.26l15.71-.09a19.68,19.68,0,0,0,4.21-.74c2.68-1.07,4.5-5.67,2.77-8-1.17-1.58-3.49-1.91-5.36-1.31a14.84,14.84,0,0,0-5.15,3.06"/>
        <path class="cls-2" d="M255.5,250.48a2.58,2.58,0,0,1-1.51-.38c-.61-.5-2.18-5.23,0-8.07a5.68,5.68,0,0,1,3.67-2.16,3.29,3.29,0,0,1,1.9.33,3.66,3.66,0,0,1,1.55-1.46,4.43,4.43,0,0,1,3.36-.31,6.08,6.08,0,0,1,3.61,3.59,15.3,15.3,0,0,1,4.77-2.68c1.87-.6,4.53-.38,5.93,1.5a5,5,0,0,1,.51,4.39,6.61,6.61,0,0,1-3.51,4.38,20.2,20.2,0,0,1-4.36.78l-15.74.08Zm2.61-9.6-.29,0a4.63,4.63,0,0,0-3,1.77c-1.85,2.35-.47,6.28-.17,6.67a3.11,3.11,0,0,0,1,.1l15.73-.09a19.53,19.53,0,0,0,4-.7,5.66,5.66,0,0,0,2.89-3.7,4,4,0,0,0-.34-3.49c-1.1-1.48-3.25-1.62-4.79-1.13a14.44,14.44,0,0,0-5,3,.52.52,0,0,1-.84-.24,5.26,5.26,0,0,0-3.19-3.63,3.38,3.38,0,0,0-2.58.24,2.52,2.52,0,0,0-1.3,1.47.52.52,0,0,1-.35.34.53.53,0,0,1-.48-.1A2.14,2.14,0,0,0,258.11,240.88Z"/>
      </g>
      <path class="cls-2" d="M251.38,242.31a4.94,4.94,0,0,0-.54,2.8c.06.49.84.5.78,0a4.18,4.18,0,0,1,.43-2.41c.23-.44-.44-.84-.67-.39Z"/>
      <path class="cls-2" d="M249.11,242.93a5.53,5.53,0,0,0-.07,2.65c.11.49.86.28.75-.21a4.55,4.55,0,0,1,.07-2.23.39.39,0,0,0-.75-.21Z"/>
      <path class="cls-2" d="M253.47,241.35a.39.39,0,0,0,0-.78.39.39,0,0,0,0,.78Z"/>
      <path class="cls-2" d="M255.68,245.11v.69a.39.39,0,0,0,.77,0v-.69a.39.39,0,0,0-.77,0Z"/>
      <path class="cls-2" d="M268.81,246.32v.35a.39.39,0,0,0,.78,0v-.35a.39.39,0,0,0-.78,0Z"/>
      <path class="cls-2" d="M267.37,245.39l.17.17c.36.35.91-.2.55-.55l-.17-.17c-.35-.36-.9.19-.55.55Z"/>
    </g>
    <path class="cls-3" d="M46.35,228.24H20a1,1,0,0,1,0-2.07H46.35a1,1,0,1,1,0,2.07Z"/>
    <path class="cls-4" d="M278.2,136.93h-.76a1.13,1.13,0,1,0-2.25,0h-.75a1.88,1.88,0,0,1,3.76,0Z"/>
    <path class="cls-4" d="M280.89,93.14h-.76a1.13,1.13,0,0,0-2.25,0h-.75a1.88,1.88,0,1,1,3.76,0Z"/>
    <path class="cls-5" d="M187.28,245.3H151.49l.61-1.44c2.35-5.57,2.59-10.34,2.23-15.78l-.07-1.1,30.17-.1v1a70.73,70.73,0,0,0,2.41,16Zm-32.7-2.08h29.9A79.25,79.25,0,0,1,182.39,229l-25.92.08A33.71,33.71,0,0,1,154.58,243.22Z"/>
    <path class="cls-5" d="M141.21,229c-27.17,0-49.18-.15-50.15-.5-2.32-.83-5.36-4-5.4-6.34-.09-5-.3-11.69-.55-19.49-.74-23.54-1.76-55.78-.44-73.62a6.18,6.18,0,0,1,6.13-5.76h.11l156.63.24a6.16,6.16,0,0,1,6,6.08c.12,5.21.29,10.54.46,15.94.72,22.59,1.46,46-1,68.06-.1.87-.14,1.83-.19,2.83-.21,4.64-.47,10.41-6.45,11.58C243.44,228.55,185.48,229,141.21,229Zm-50.39-104a4.53,4.53,0,0,0-4.49,4.22c-1.31,17.75-.3,49.93.45,73.43.24,7.82.46,14.56.54,19.53,0,1.44,2.44,4.13,4.3,4.79,3.34.68,150.59.18,154.42-.54,4.69-.93,4.9-5.55,5.11-10,0-1,.09-2,.19-2.94,2.49-22,1.75-45.28,1-67.82-.17-5.4-.34-10.73-.46-16a4.52,4.52,0,0,0-4.4-4.46l-156.63-.23Z"/>
    <path class="cls-6" d="M243.16,128.87l-147.58-.2a4.83,4.83,0,0,0-5.08,4.16c-1.65,19.75.6,61,.93,77.55,0,1.62,2.67,4,4.57,4.64,2.24.71,142.49.18,145.91-.42,6.16-1.08,5.11-7.38,5.63-11.42,2.92-22.81,1.12-47.6.54-69.92A4.77,4.77,0,0,0,243.16,128.87Z"/>
    <path class="cls-5" d="M200.08,251h-61.4a3.81,3.81,0,0,1,0-7.62h61.4a3.81,3.81,0,0,1,0,7.62ZM138.68,245a2.15,2.15,0,0,0,0,4.29h61.4a2.15,2.15,0,0,0,0-4.29Z"/>
    <g>
      <path class="cls-5" d="M95.91,223.14c2.76,0,2.77-4.29,0-4.29s-2.76,4.29,0,4.29Z"/>
      <path class="cls-5" d="M104.55,223.14c2.76,0,2.77-4.29,0-4.29s-2.76,4.29,0,4.29Z"/>
      <path class="cls-5" d="M113.19,223.14c2.76,0,2.77-4.29,0-4.29s-2.76,4.29,0,4.29Z"/>
    </g>
    <path class="cls-5" d="M169.38,127.59a1,1,0,0,0,0-2,1,1,0,0,0,0,2Z"/>
    <g>
      <polygon class="cls-7" points="342.55 246.9 321.39 246.9 329.53 220.17 334.42 220.17 342.55 246.9"/>
      <rect class="cls-7" x="319.65" y="246.9" width="24.65" height="3.05"/>
      <polygon class="cls-5" points="323.43 240.22 321.39 246.9 342.55 246.9 340.52 240.22 323.43 240.22"/>
      <polygon class="cls-5" points="325.46 233.54 338.48 233.54 336.45 226.85 327.5 226.85 325.46 233.54"/>
    </g>
    <path class="cls-7" d="M351.2,249.78h4.7V231.6H380v18.18h4.69V231.6h5V217.09h-4v-1.34h-6.84v1.34H357.51v-1.34h-6.84v1.34h-4.36V231.6h4.89Zm36.95-31.18v.07l-2.89,11.42h-5.17L383,218.6Zm-13.47,11.49h-5.16l2.91-11.49h5.16Zm-10.57,0h-5.17l2.91-11.49H367ZM351.28,218.6h5.16l-2.91,11.49h-5.16Z"/>
    <g>
      <path class="cls-7" d="M120.28,72.07l1.41-1.4a.75.75,0,0,0,0-1l-1.23-1.22a1,1,0,0,1-.16-1.16l1-2.42a1,1,0,0,1,.93-.7H124a.73.73,0,0,0,.73-.73v-2a.73.73,0,0,0-.73-.73h-1.74a1,1,0,0,1-.93-.7l-1-2.43a1,1,0,0,1,.16-1.15l1.23-1.23a.74.74,0,0,0,0-1l-1.41-1.41a.74.74,0,0,0-1,0L118,54a1,1,0,0,1-1.15.16l-2.43-1a1,1,0,0,1-.7-.93V50.45a.73.73,0,0,0-.73-.73h-2a.73.73,0,0,0-.73.73v1.74a1,1,0,0,1-.7.93l-2.42,1A1,1,0,0,1,106,54l-1.23-1.23a.72.72,0,0,0-1,0l-1.42,1.41a.74.74,0,0,0,0,1l1.23,1.23a1,1,0,0,1,.17,1.15l-1,2.43a1.06,1.06,0,0,1-.94.7h-1.74a.72.72,0,0,0-.72.73v2a.73.73,0,0,0,.72.73h1.74a1,1,0,0,1,.94.7l1,2.42a1.05,1.05,0,0,1-.17,1.16l-1.23,1.22a.75.75,0,0,0,0,1l1.42,1.4a.71.71,0,0,0,1,0L106,70.85a1.05,1.05,0,0,1,1.16-.17l2.42,1a1,1,0,0,1,.7.94v1.74a.73.73,0,0,0,.73.72h2a.72.72,0,0,0,.73-.72V72.62a1,1,0,0,1,.7-.94l2.43-1a1,1,0,0,1,1.15.17l1.23,1.22A.72.72,0,0,0,120.28,72.07ZM112,68.22a5.82,5.82,0,1,1,5.82-5.82A5.82,5.82,0,0,1,112,68.22Z"/>
      <path class="cls-7" d="M133.74,77.57l-.36-1.18a.45.45,0,0,0-.56-.3l-1,.31a.64.64,0,0,1-.68-.25l-1-1.25a.64.64,0,0,1-.11-.72l.51-1a.45.45,0,0,0-.19-.61L129.21,72a.46.46,0,0,0-.62.18l-.5,1a.65.65,0,0,1-.66.3l-1.62-.16a.65.65,0,0,1-.58-.43l-.31-1a.46.46,0,0,0-.56-.3l-1.19.36a.45.45,0,0,0-.3.56l.31,1a.63.63,0,0,1-.25.68l-1.25,1a.65.65,0,0,1-.72.1l-.95-.51a.46.46,0,0,0-.61.19l-.58,1.08a.46.46,0,0,0,.18.62l1,.51a.63.63,0,0,1,.31.65l-.16,1.62a.64.64,0,0,1-.43.58l-1,.31a.45.45,0,0,0-.3.57l.35,1.18a.46.46,0,0,0,.57.3l1-.31a.63.63,0,0,1,.67.25l1,1.25a.66.66,0,0,1,.1.72l-.5,1a.45.45,0,0,0,.18.61l1.09.58a.45.45,0,0,0,.61-.18l.51-1a.65.65,0,0,1,.66-.31l1.61.17a.66.66,0,0,1,.59.43l.31,1a.45.45,0,0,0,.56.31l1.18-.36a.47.47,0,0,0,.31-.56l-.32-1a.64.64,0,0,1,.25-.68l1.26-1a.63.63,0,0,1,.71-.11l.95.5a.44.44,0,0,0,.61-.18l.59-1.09a.46.46,0,0,0-.19-.61l-.95-.51a.62.62,0,0,1-.3-.65L132,79a.64.64,0,0,1,.43-.58l1-.31A.47.47,0,0,0,133.74,77.57ZM129.22,81a3.61,3.61,0,1,1-1.48-4.88A3.61,3.61,0,0,1,129.22,81Z"/>
    </g>
    <path class="cls-3" d="M192.62,100.35H160a1,1,0,0,1,0-2.07h32.6a1,1,0,1,1,0,2.07Z"/>
    <path class="cls-3" d="M126.26,115.16H73.6a1,1,0,1,1,0-2.07h52.66a1,1,0,0,1,0,2.07Z"/>
    <path class="cls-3" d="M378.73,143.2H326.08a1,1,0,1,1,0-2.07h52.65a1,1,0,1,1,0,2.07Z"/>
    <path class="cls-3" d="M399.44,252H1a1,1,0,1,1,0-2.07h398.4a1,1,0,0,1,0,2.07Z"/>
    <g>
      <path class="cls-7" d="M253.3,87.33a8.36,8.36,0,0,0-7.22,12.59l.14.24-8.47,8.46a1.54,1.54,0,0,0-.42,1,1.87,1.87,0,0,0,.64,1.28,2,2,0,0,0,1.42.69,1.78,1.78,0,0,0,1-.34l8.44-8.45.24.14a8.36,8.36,0,1,0,4.23-15.58Zm0,14.24a5.88,5.88,0,0,1,0-11.76h0a5.88,5.88,0,0,1,0,11.76Z"/>
      <path class="cls-7" d="M250.2,96.91h6.05V95.36H250.2Z"/>
    </g>
    <g>
      <path class="cls-3" d="M98,250.09a1,1,0,0,1-1-1V169.18a1,1,0,1,1,2.07,0v79.87A1,1,0,0,1,98,250.09Z"/>
      <path class="cls-3" d="M116.55,250.09a1,1,0,0,1-1-1V169.18a1,1,0,1,1,2.07,0v79.87A1,1,0,0,1,116.55,250.09Z"/>
      <path class="cls-3" d="M116.55,175.67H98a1,1,0,0,1,0-2.07h18.57a1,1,0,0,1,0,2.07Z"/>
      <path class="cls-3" d="M116.55,184.8H98a1,1,0,0,1,0-2.07h18.57a1,1,0,0,1,0,2.07Z"/>
      <path class="cls-3" d="M116.55,193.93H98a1,1,0,0,1,0-2.08h18.57a1,1,0,0,1,0,2.08Z"/>
      <path class="cls-3" d="M116.55,203.05H98A1,1,0,0,1,98,201h18.57a1,1,0,0,1,0,2.07Z"/>
      <path class="cls-3" d="M116.55,212.18H98a1,1,0,0,1,0-2.08h18.57a1,1,0,0,1,0,2.08Z"/>
      <path class="cls-3" d="M116.55,221.3H98a1,1,0,0,1,0-2.07h18.57a1,1,0,0,1,0,2.07Z"/>
      <path class="cls-3" d="M116.55,230.43H98a1,1,0,0,1,0-2.08h18.57a1,1,0,0,1,0,2.08Z"/>
      <path class="cls-3" d="M116.55,239.55H98a1,1,0,0,1,0-2.07h18.57a1,1,0,0,1,0,2.07Z"/>
    </g>
    <g>
      <path class="cls-3" d="M72.71,173.05a1,1,0,0,1-1-1v-4a1,1,0,1,1,2.07,0v4A1,1,0,0,1,72.71,173.05Z"/>
      <path class="cls-3" d="M74.72,171h-4a1,1,0,1,1,0-2.07h4a1,1,0,1,1,0,2.07Z"/>
    </g>
    <g>
      <path class="cls-3" d="M166,28.62a1,1,0,0,1-1-1v-4a1,1,0,0,1,2.07,0v4A1,1,0,0,1,166,28.62Z"/>
      <path class="cls-3" d="M168,26.6h-4a1,1,0,0,1,0-2.08h4a1,1,0,0,1,0,2.08Z"/>
    </g>
    <g>
      <path class="cls-3" d="M198.67,237.68a1,1,0,0,1-.29,0l-3.88-1.1a1,1,0,0,1,.57-2l3.88,1.11a1,1,0,0,1,.71,1.28A1,1,0,0,1,198.67,237.68Z"/>
      <path class="cls-3" d="M196.17,239.07a1,1,0,0,1-.29,0,1,1,0,0,1-.71-1.28l1.11-3.88a1,1,0,0,1,2,.56l-1.11,3.89A1,1,0,0,1,196.17,239.07Z"/>
    </g>
    <g>
      <path class="cls-3" d="M178.27,115.72a1.45,1.45,0,0,1-.29,0l-3.88-1.11a1,1,0,0,1,.57-2l3.88,1.11a1,1,0,0,1-.28,2Z"/>
      <path class="cls-3" d="M175.77,117.1a.9.9,0,0,1-.28,0,1,1,0,0,1-.72-1.28l1.11-3.88a1,1,0,0,1,2,.57l-1.11,3.88A1,1,0,0,1,175.77,117.1Z"/>
    </g>
    <g>
      <circle class="cls-7" cx="175.55" cy="77.5" r="14.41" transform="translate(-3.38 146.83) rotate(-45)"/>
      <g>
        <circle class="cls-4" cx="175.55" cy="77.5" r="10.79"/>
        <path class="cls-3" d="M175.55,88.71A11.21,11.21,0,1,1,186.76,77.5,11.22,11.22,0,0,1,175.55,88.71Zm0-21.59A10.38,10.38,0,1,0,185.92,77.5,10.4,10.4,0,0,0,175.55,67.12Z"/>
      </g>
      <g>
        <path class="cls-3" d="M175.55,77.91a.41.41,0,0,1-.42-.41V72a.42.42,0,0,1,.42-.42A.41.41,0,0,1,176,72v5.5A.41.41,0,0,1,175.55,77.91Z"/>
        <path class="cls-3" d="M182,77.91h-6.43a.41.41,0,0,1-.42-.41.42.42,0,0,1,.42-.42H182a.42.42,0,0,1,.42.42A.41.41,0,0,1,182,77.91Z"/>
      </g>
      <g>
        <path class="cls-3" d="M176,67.92a.43.43,0,1,1-.42-.42A.42.42,0,0,1,176,67.92Z"/>
        <circle class="cls-3" cx="182.32" cy="70.73" r="0.43"/>
        <path class="cls-3" d="M185.12,77.92a.43.43,0,1,1,.43-.42A.42.42,0,0,1,185.12,77.92Z"/>
        <circle class="cls-3" cx="182.32" cy="84.27" r="0.43"/>
        <path class="cls-3" d="M175.12,87.07a.43.43,0,1,1,.43.43A.43.43,0,0,1,175.12,87.07Z"/>
        <path class="cls-3" d="M168.48,84a.43.43,0,0,1,.6,0,.45.45,0,0,1,0,.61.43.43,0,0,1-.6,0A.43.43,0,0,1,168.48,84Z"/>
        <circle class="cls-3" cx="165.97" cy="77.5" r="0.43"/>
        <path class="cls-3" d="M169.08,70.42a.45.45,0,0,1,0,.61.43.43,0,0,1-.6,0,.43.43,0,0,1,0-.61A.43.43,0,0,1,169.08,70.42Z"/>
      </g>
      <g>
        <path class="cls-3" d="M196.62,72h-6.05a.41.41,0,0,1-.42-.41.42.42,0,0,1,.42-.42h6.05a.42.42,0,0,1,.42.42A.41.41,0,0,1,196.62,72Z"/>
        <path class="cls-3" d="M196.62,83.83h-6.05a.42.42,0,1,1,0-.83h6.05a.42.42,0,1,1,0,.83Z"/>
        <path class="cls-3" d="M204.14,77.92h-11.3a.42.42,0,1,1,0-.84h11.3a.42.42,0,0,1,0,.84Z"/>
      </g>
    </g>
    <g>
      <g>
        <rect class="cls-4" x="217.17" y="233.54" width="6.68" height="6.68"/>
        <path class="cls-5" d="M224.38,240.74h-7.72V233h7.72Zm-6.69-1h5.65v-5.64h-5.65Z"/>
      </g>
      <g>
        <path class="cls-3" d="M232.31,235h-6.05a.42.42,0,0,1,0-.84h6.05a.42.42,0,0,1,0,.84Z"/>
        <path class="cls-3" d="M234.59,239.58h-8.18c-.31,0-.56-.18-.56-.41s.25-.42.56-.42h8.18c.31,0,.56.19.56.42S234.9,239.58,234.59,239.58Z"/>
        <path class="cls-3" d="M237.56,237.17h-11.3a.42.42,0,0,1,0-.84h11.3a.42.42,0,0,1,0,.84Z"/>
      </g>
    </g>
    <g>
      <g>
        <rect class="cls-4" x="70.45" y="135.48" width="6.68" height="6.68" transform="translate(147.58 277.64) rotate(180)"/>
        <path class="cls-5" d="M77.65,142.68H69.93V135h7.72Zm-6.68-1h5.64V136H71Z"/>
      </g>
      <g>
        <path class="cls-3" d="M62,137H68a.42.42,0,0,0,.42-.42.41.41,0,0,0-.42-.41H62a.41.41,0,0,0-.41.41A.41.41,0,0,0,62,137Z"/>
        <path class="cls-3" d="M59.72,141.53H67.9c.31,0,.56-.19.56-.42s-.25-.42-.56-.42H59.72c-.31,0-.56.19-.56.42S59.41,141.53,59.72,141.53Z"/>
        <path class="cls-3" d="M56.74,139.11H68a.42.42,0,0,0,.42-.42.41.41,0,0,0-.42-.41H56.74a.41.41,0,0,0-.41.41A.41.41,0,0,0,56.74,139.11Z"/>
      </g>
    </g>
    <g>
      <rect class="cls-8" x="274.24" y="160.59" width="2.07" height="89.19"/>
      <rect class="cls-7" x="268.9" y="150.83" width="12.76" height="20.55" rx="6.15"/>
      <path class="cls-8" d="M283.63,165.41l2.19.36c.49.07.7-.68.21-.75l-2.19-.36c-.49-.07-.7.67-.21.75Z"/>
      <path class="cls-8" d="M283.56,160.66a6.6,6.6,0,0,1,1.72-.06c.49.05.49-.73,0-.78a7.34,7.34,0,0,0-1.93.09c-.49.09-.28.84.21.75Z"/>
      <path class="cls-8" d="M283.32,156.33l1.68-.66c.46-.19.26-.94-.21-.75l-1.68.66c-.46.18-.26.94.21.75Z"/>
      <path class="cls-8" d="M264.25,166.14a8.93,8.93,0,0,0,1.68-.4c.47-.16.26-.92-.21-.75a8.75,8.75,0,0,1-1.68.4c-.49.07-.28.82.21.75Z"/>
      <path class="cls-8" d="M263.24,160.61a8.91,8.91,0,0,1,2.11.32.39.39,0,0,0,.21-.75,9.58,9.58,0,0,0-2.32-.35.39.39,0,0,0,0,.78Z"/>
      <path class="cls-8" d="M263.92,154.21l1.68.54c.48.15.68-.6.2-.75l-1.68-.54c-.47-.15-.68.6-.2.75Z"/>
      <polygon class="cls-3" points="270.44 250.99 271.82 239.07 278.56 239.07 280.12 250.82 270.44 250.99"/>
    </g>
    <g>
      <g>
        <g>
          <path class="cls-1" d="M80.1,193.92c-.3-1.9-1.64-6.79-4.6-5.24-4.78,2.5,1,12-4.77,13.7-.31-3.8-1.13-6.41-2.84-6.25-3.53.32-2.59,8.53-2.65,10.38s-.15,3.73-.23,5.63c-4.16.75-3.34-10.09-5.86-11.59-3.93-2.33-4.77,2.87-4.66,5.27.19,4.08,1.28,9,5.12,11.13a10.39,10.39,0,0,0,5.23,1.38,54.22,54.22,0,0,0,.66,9.6s.06,0,.07,0h0l2.32.12v0a.8.8,0,0,0,1.59,0c0-2,1.24-11.64,1.39-19.84a8.38,8.38,0,0,0,5.53-1.56C80.37,203.78,80.83,198.42,80.1,193.92Z"/>
          <path class="cls-2" d="M68.67,229.3a1.32,1.32,0,0,1-.67-.18,1.12,1.12,0,0,1-.5-.65l-1.72-.09-.62,0-.1-.39a53.33,53.33,0,0,1-.66-9.22,11.59,11.59,0,0,1-5-1.45c-4.09-2.32-5.16-7.54-5.34-11.5-.07-1.6.27-4.9,2.05-6a3.08,3.08,0,0,1,3.27.31c1.22.73,1.69,3,2.23,5.53.73,3.49,1.39,6,3,6l0-.86c.07-1.48.14-2.95.18-4.38,0-.29,0-.72,0-1.25-.12-3.24-.32-9.26,3.07-9.56a1.86,1.86,0,0,1,1.42.45c1,.8,1.55,2.64,1.85,5.63,2.14-1,2-3.45,1.9-6.3s-.26-5.85,2.28-7.18a2.43,2.43,0,0,1,2.33-.1c2.11,1.05,2.83,5.19,2.91,5.66h0c.56,3.45.8,9.76-3.88,13.19a9.15,9.15,0,0,1-5.36,1.7c-.12,5.35-.67,11.25-1,15.19-.18,2-.33,3.53-.34,4.17a1.15,1.15,0,0,1-.6,1A1.33,1.33,0,0,1,68.67,229.3Zm-2.8-1.8,2.48.13v.43c0,.21.06.27.12.31a.47.47,0,0,0,.43,0,.3.3,0,0,0,.15-.28c0-.68.15-2.17.34-4.24.38-4,1-10.16,1.05-15.6v-.51l.5.08a8.08,8.08,0,0,0,5.21-1.49c4.3-3.15,4.06-9.09,3.53-12.34h0c-.23-1.43-1-4.31-2.44-5a1.54,1.54,0,0,0-1.52.09c-2,1.07-1.93,3.64-1.8,6.36.13,3,.28,6.4-3.06,7.37l-.52.15,0-.54c-.31-3.78-1-5.13-1.59-5.59a1,1,0,0,0-.77-.25c-2.56.23-2.37,5.92-2.27,8.65,0,.55,0,1,0,1.3,0,1.45-.11,2.92-.17,4.4l-.08,1.6-.34.06c-2.85.51-3.65-3.32-4.35-6.7-.46-2.17-.93-4.42-1.82-4.95a2.28,2.28,0,0,0-2.36-.31c-1.32.79-1.7,3.59-1.63,5.18.17,3.74,1.16,8.65,4.9,10.77a9.93,9.93,0,0,0,5,1.32l.48,0v.48A55.36,55.36,0,0,0,65.87,227.5Z"/>
        </g>
        <path class="cls-5" d="M75.53,250H58.65a1.78,1.78,0,0,1-1.79-1.46L53,228.83l1.6-.31,3.83,19.68a.18.18,0,0,0,.2.15H75.53a.18.18,0,0,0,.2-.15l3.8-19.68,1.59.31-3.8,19.68A1.78,1.78,0,0,1,75.53,250Z"/>
        <g>
          <g>
            <path class="cls-7" d="M53.2,222.5h28c.48,0,.87.53.87,1.17v4.26c0,.65-.39,1.18-.87,1.18h-28c-.48,0-.87-.53-.87-1.18v-4.26C52.33,223,52.72,222.5,53.2,222.5Z"/>
            <path class="cls-3" d="M81.22,229.55h-28a1.49,1.49,0,0,1-1.31-1.62v-4.26a1.48,1.48,0,0,1,1.31-1.61h28a1.49,1.49,0,0,1,1.31,1.61v4.26A1.5,1.5,0,0,1,81.22,229.55Zm-28-6.61c-.21,0-.43.31-.43.73v4.26c0,.42.22.74.43.74h28c.2,0,.43-.32.43-.74v-4.26c0-.42-.23-.73-.43-.73Z"/>
          </g>
          <g>
            <path class="cls-7" d="M81.22,229.48h-28A1.42,1.42,0,0,1,52,227.93v-4.26a1.41,1.41,0,0,1,1.24-1.54h28a1.42,1.42,0,0,1,1.24,1.54v4.26A1.43,1.43,0,0,1,81.22,229.48Zm-28-6.61c-.24,0-.5.33-.5.8v4.26c0,.48.26.81.5.81h28c.24,0,.5-.33.5-.81v-4.26c0-.47-.26-.8-.5-.8Z"/>
            <path class="cls-3" d="M81.22,229.92h-28a1.85,1.85,0,0,1-1.68-2v-4.26a1.85,1.85,0,0,1,1.68-2h28a1.85,1.85,0,0,1,1.68,2v4.26A1.85,1.85,0,0,1,81.22,229.92Zm-28-6.61a.55.55,0,0,0-.11.36v4.26a.52.52,0,0,0,.12.38h28s.06-.14.06-.37v-4.26a.51.51,0,0,0-.13-.38Z"/>
          </g>
        </g>
      </g>
      <path class="cls-2" d="M56.25,205.77l1.38.18c.5.06.49-.72,0-.78L56.25,205c-.49-.06-.49.72,0,.78Z"/>
      <path class="cls-2" d="M58.29,199.65v.69a.39.39,0,0,0,.77,0v-.69a.39.39,0,0,0-.77,0Z"/>
      <path class="cls-2" d="M61,206.79l1-.57c.44-.24,0-.91-.39-.67l-1,.56a.39.39,0,0,0,.4.68Z"/>
      <path class="cls-2" d="M57,215.73l1.22-.85c.41-.28,0-1-.39-.67l-1.22.85c-.41.29,0,1,.39.67Z"/>
      <path class="cls-2" d="M54.07,209.05l.86.34c.47.18.67-.57.21-.75l-.87-.34c-.46-.19-.67.57-.2.75Z"/>
      <path class="cls-2" d="M59.71,212.66a.52.52,0,0,1,.41.24c.32.38.87-.17.55-.55a1.28,1.28,0,0,0-1-.47c-.5,0-.5.74,0,.78Z"/>
      <path class="cls-2" d="M61.42,216.32a2.53,2.53,0,0,0,.19,1.51c.19.46.86.07.67-.39a1.61,1.61,0,0,1-.11-.92c.07-.49-.68-.7-.75-.2Z"/>
      <path class="cls-2" d="M65.48,216.46l.69.18a.39.39,0,0,0,.21-.75l-.69-.18a.39.39,0,0,0-.21.75Z"/>
      <path class="cls-2" d="M68,208.81a1.3,1.3,0,0,0,.46,1.14c.38.32.93-.23.55-.55a.61.61,0,0,1-.24-.59c.05-.49-.73-.49-.77,0Z"/>
      <path class="cls-2" d="M67,203.26a1.16,1.16,0,0,0-.2,1c.08.49.83.28.75-.21a.39.39,0,0,1,.12-.39c.3-.4-.38-.79-.67-.39Z"/>
      <path class="cls-2" d="M71.25,205.53v.69a.39.39,0,0,0,.78,0v-.69a.39.39,0,0,0-.78,0Z"/>
      <path class="cls-2" d="M64,204.31l.52.35c.42.27.81-.4.39-.68l-.52-.34c-.42-.28-.81.39-.39.67Z"/>
      <path class="cls-2" d="M65.31,197.86a.89.89,0,0,1,.24.58c0,.5.82.5.78,0a1.85,1.85,0,0,0-.47-1.13c-.33-.38-.87.17-.55.55Z"/>
      <path class="cls-2" d="M67.27,195.5v1a.39.39,0,0,0,.78,0v-1a.39.39,0,0,0-.78,0Z"/>
      <path class="cls-2" d="M72.08,200.07l.34.36c.35.36.9-.19.55-.55l-.34-.36c-.34-.36-.89.19-.55.55Z"/>
      <path class="cls-2" d="M72.85,195.44l1,.06c.5,0,.5-.75,0-.78l-1-.06c-.5,0-.49.75,0,.78Z"/>
      <path class="cls-2" d="M74,189.21l.69.69c.35.36.9-.19.55-.55l-.69-.69c-.36-.35-.91.2-.55.55Z"/>
      <path class="cls-2" d="M77,187.21v1.21a.39.39,0,0,0,.78,0v-1.21a.39.39,0,0,0-.78,0Z"/>
      <path class="cls-2" d="M78.36,194.49l.35-.52c.27-.42-.4-.81-.68-.4-.11.18-.22.35-.34.52-.27.42.4.81.67.4Z"/>
      <path class="cls-2" d="M75.73,202.13l.86-.34c.47-.18.26-.93-.2-.75l-.87.34c-.46.17-.26.93.21.75Z"/>
      <path class="cls-2" d="M79.17,201l.86-.18c.49-.1.28-.85-.2-.75l-.87.18c-.49.1-.28.85.21.75Z"/>
      <path class="cls-2" d="M77,204.67v.17a.39.39,0,0,0,.78,0v-.17a.39.39,0,0,0-.78,0Z"/>
      <path class="cls-2" d="M70.27,216.57l.52-.34c.42-.28,0-.95-.39-.67l-.52.34c-.41.28,0,.95.39.67Z"/>
      <path class="cls-2" d="M69.82,219.44a2.16,2.16,0,0,1,1.06-.57c.49-.11.28-.86-.21-.75a3,3,0,0,0-1.4.77c-.36.35.19.9.55.55Z"/>
      <path class="cls-2" d="M66.62,219.91l.17.34c.23.45.9.06.67-.39,0-.11-.11-.23-.17-.34-.23-.45-.9-.06-.67.39Z"/>
      <path class="cls-2" d="M63.65,220.75a2,2,0,0,0,1.35.18c.49-.1.28-.85-.21-.75a1,1,0,0,1-.74-.11c-.45-.23-.84.44-.4.68Z"/>
      <path class="cls-2" d="M70.08,213.37l1.56-.2c.49-.06.49-.84,0-.77l-1.56.19c-.49.06-.49.84,0,.78Z"/>
    </g>
    <g>
      <path class="cls-9" d="M139.75,179.28l25.11-22.7c1.24-1.12-.6-3-1.83-1.83q-12.57,11.34-25.12,22.7c-1.24,1.12.6,3,1.84,1.83Z"/>
      <path class="cls-9" d="M168.13,190.86l25.11-22.7c1.24-1.12-.59-2.95-1.83-1.83L166.3,189c-1.25,1.12.59,2.95,1.83,1.83Z"/>
      <path class="cls-9" d="M137.29,199.44l52.63-51.33c1.2-1.16-.63-3-1.83-1.83l-52.64,51.33c-1.19,1.17.64,3,1.84,1.83Z"/>
    </g>
    <g>
      <g>
        <rect class="cls-5" x="216.61" y="39.84" width="1.13" height="72.44"/>
        <path class="cls-5" d="M221.77,112.27a4.6,4.6,0,1,1-4.6-4.59A4.6,4.6,0,0,1,221.77,112.27Z"/>
        <path class="cls-5" d="M217.24,127.7a4,4,0,0,1-2.67-1.11,4.09,4.09,0,0,1-1.11-3,.61.61,0,0,1,.61-.61.61.61,0,0,1,.61.61,2.59,2.59,0,0,0,2.56,2.9,3.11,3.11,0,0,0,0-6.22.61.61,0,0,1-.61-.61v-3.38a.61.61,0,1,1,1.22,0v2.82a4.33,4.33,0,0,1-.61,8.61Z"/>
      </g>
      <g>
        <path class="cls-5" d="M193.09,130.53a.56.56,0,0,1,0-1.11L218,125.75a.57.57,0,0,1,.64.48.58.58,0,0,1-.48.64l-24.89,3.66Z"/>
        <path class="cls-5" d="M240.87,138.81a.55.55,0,0,1-.17-.05l-22.88-11.95a.56.56,0,1,1,.52-1l22.89,11.95a.56.56,0,0,1-.36,1.05Z"/>
        <g>
          <rect class="cls-4" x="175.77" y="134.29" width="73.61" height="47.36" rx="5.87" transform="translate(30.18 -34.06) rotate(9.86)"/>
          <path class="cls-5" d="M239.83,187.43a6.82,6.82,0,0,1-1.18-.11l-60.52-10.51a6.83,6.83,0,0,1-4.44-2.82,6.76,6.76,0,0,1-1.15-5.12l6-34.67a6.87,6.87,0,0,1,7.94-5.59L247,139.13a6.86,6.86,0,0,1,5.59,7.94l-6,34.66A6.88,6.88,0,0,1,239.83,187.43Zm-54.51-57.37a5.31,5.31,0,0,0-5.22,4.4l-6,34.67a5.3,5.3,0,0,0,4.32,6.14l60.53,10.52a5.32,5.32,0,0,0,6.14-4.32l6-34.67a5.3,5.3,0,0,0-4.32-6.14l-60.53-10.52A5.59,5.59,0,0,0,185.32,130.06Z"/>
        </g>
        <g>
          <rect class="cls-7" x="178.99" y="137.95" width="67.17" height="40.03" rx="3.75" transform="translate(30.18 -34.06) rotate(9.86)"/>
          <path class="cls-3" d="M239.08,183.61a5.54,5.54,0,0,1-.81-.07l-58.51-10.17a4.63,4.63,0,0,1-3-1.91A4.69,4.69,0,0,1,176,168l5.52-31.77a4.66,4.66,0,0,1,5.4-3.8l58.51,10.16a4.68,4.68,0,0,1,3.8,5.4l-5.52,31.78a4.61,4.61,0,0,1-1.91,3A4.67,4.67,0,0,1,239.08,183.61Zm-.54-1.61a3.12,3.12,0,0,0,3.6-2.53l5.52-31.78a3.11,3.11,0,0,0-2.53-3.59l-58.52-10.17a3.11,3.11,0,0,0-3.59,2.53l-5.52,31.78a3,3,0,0,0,.52,2.32,3.1,3.1,0,0,0,2,1.28Z"/>
        </g>
        <g>
          <polygon class="cls-4" points="210.66 177.95 225.87 164.01 234.29 182.05 210.66 177.95"/>
          <path class="cls-5" d="M235.18,182.73l-25.65-4.45L226,163.15Zm-23.4-5.11,21.62,3.75-7.7-16.5Z"/>
        </g>
        <g>
          <polygon class="cls-4" points="180.58 172.72 207.55 148 222.47 180 180.58 172.72"/>
          <path class="cls-5" d="M223.36,180.68l-43.91-7.63,28.27-25.9Zm-41.65-8.29,39.87,6.93-14.2-30.45Z"/>
        </g>
        <g>
          <path class="cls-4" d="M239.61,152.69a3.77,3.77,0,1,1-3.07-4.36A3.77,3.77,0,0,1,239.61,152.69Z"/>
          <path class="cls-5" d="M235.91,156.34a3.81,3.81,0,0,1-.75-.07,4.29,4.29,0,0,1-1.73-7.73,4.23,4.23,0,0,1,3.2-.72,4.29,4.29,0,0,1,1.74,7.73A4.24,4.24,0,0,1,235.91,156.34Zm0-7.55a3.26,3.26,0,1,0,3.21,3.81h0a3.26,3.26,0,0,0-2.65-3.76A3.43,3.43,0,0,0,235.89,148.79Z"/>
        </g>
      </g>
      <rect class="cls-7" x="207.28" y="37.4" width="56.53" height="6.22"/>
      <g>
        <g>
          <g>
            <g>
              <path class="cls-5" d="M312.93,166H294.16V.08h18.77ZM296,164.15h15.05V1.94H296Z"/>
              <g>
                <path class="cls-5" d="M312.69,18.29H294.4V0h18.29Zm-16.41-1.88h14.53V1.88H296.28Z"/>
                <rect class="cls-5" x="302.61" y="-2.46" width="1.88" height="23.21" transform="translate(82.44 217.32) rotate(-45)"/>
                <rect class="cls-5" x="291.94" y="8.21" width="23.21" height="1.88" transform="translate(82.44 217.32) rotate(-45)"/>
              </g>
              <g>
                <path class="cls-5" d="M312.69,34.71H294.4V16.41h18.29Zm-16.41-1.88h14.53V18.29H296.28Z"/>
                <rect class="cls-5" x="302.61" y="13.95" width="1.88" height="23.21" transform="translate(70.83 222.13) rotate(-45)"/>
                <rect class="cls-5" x="291.94" y="24.62" width="23.21" height="1.88" transform="translate(70.83 222.13) rotate(-45)"/>
              </g>
              <g>
                <path class="cls-5" d="M312.69,51.12H294.4V32.83h18.29Zm-16.41-1.88h14.53V34.71H296.28Z"/>
                <rect class="cls-5" x="302.61" y="30.37" width="1.88" height="23.21" transform="translate(59.22 226.93) rotate(-45)"/>
                <rect class="cls-5" x="291.94" y="41.04" width="23.21" height="1.88" transform="translate(59.23 226.94) rotate(-45)"/>
              </g>
              <g>
                <path class="cls-5" d="M312.69,67.54H294.4V49.24h18.29Zm-16.41-1.88h14.53V51.12H296.28Z"/>
                <rect class="cls-5" x="302.61" y="46.78" width="1.88" height="23.21" transform="translate(47.62 231.74) rotate(-45)"/>
                <rect class="cls-5" x="291.94" y="57.45" width="23.21" height="1.88" transform="translate(47.62 231.74) rotate(-45)"/>
              </g>
              <g>
                <path class="cls-5" d="M312.69,84H294.4V65.66h18.29Zm-16.41-1.88h14.53V67.54H296.28Z"/>
                <rect class="cls-5" x="302.61" y="63.2" width="1.88" height="23.21" transform="translate(36.01 236.55) rotate(-45)"/>
                <rect class="cls-5" x="291.94" y="73.86" width="23.21" height="1.88" transform="translate(36.02 236.56) rotate(-45)"/>
              </g>
              <g>
                <path class="cls-5" d="M312.69,100.37H294.4V82.07h18.29Zm-16.41-1.88h14.53V84H296.28Z"/>
                <rect class="cls-5" x="302.61" y="79.61" width="1.88" height="23.21" transform="translate(24.4 241.36) rotate(-45)"/>
                <rect class="cls-5" x="291.94" y="90.28" width="23.21" height="1.88" transform="translate(24.41 241.37) rotate(-45)"/>
              </g>
              <g>
                <path class="cls-5" d="M312.69,116.78H294.4V98.49h18.29Zm-16.41-1.88h14.53V100.37H296.28Z"/>
                <rect class="cls-5" x="302.61" y="96.03" width="1.88" height="23.21" transform="translate(12.8 246.16) rotate(-45)"/>
                <rect class="cls-5" x="291.94" y="106.69" width="23.21" height="1.88" transform="translate(12.8 246.18) rotate(-45)"/>
              </g>
              <g>
                <path class="cls-5" d="M312.69,133.19H294.4V114.9h18.29Zm-16.41-1.88h14.53V116.78H296.28Z"/>
                <rect class="cls-5" x="302.61" y="112.44" width="1.88" height="23.21" transform="translate(1.19 250.97) rotate(-45)"/>
                <rect class="cls-5" x="291.94" y="123.11" width="23.21" height="1.88" transform="translate(1.2 250.98) rotate(-45)"/>
              </g>
              <g>
                <path class="cls-5" d="M312.69,149.61H294.4v-18.3h18.29Zm-16.41-1.88h14.53V133.19H296.28Z"/>
                <rect class="cls-5" x="302.61" y="128.85" width="1.88" height="23.21" transform="translate(-10.41 255.78) rotate(-45)"/>
                <rect class="cls-5" x="291.94" y="139.52" width="23.21" height="1.88" transform="translate(-10.41 255.79) rotate(-45)"/>
              </g>
              <g>
                <path class="cls-5" d="M312.69,166H294.4V147.73h18.29Zm-16.41-1.88h14.53V149.61H296.28Z"/>
                <rect class="cls-5" x="302.61" y="145.27" width="1.88" height="23.21" transform="translate(-22.02 260.58) rotate(-45)"/>
                <rect class="cls-5" x="291.94" y="155.94" width="23.21" height="1.88" transform="translate(-22.04 260.53) rotate(-44.99)"/>
              </g>
            </g>
            <g>
              <g>
                <path class="cls-5" d="M345.35,34.46H327.06V16.17h18.29Zm-16.41-1.88h14.53V18.05H328.94Z"/>
                <rect class="cls-5" x="324.6" y="24.37" width="23.21" height="1.88" transform="translate(80.61 245.2) rotate(-45.01)"/>
                <rect class="cls-5" x="335.27" y="13.71" width="1.88" height="23.21" transform="translate(80.57 245.15) rotate(-45)"/>
              </g>
              <g>
                <path class="cls-5" d="M328.94,34.46H310.65V16.17h18.29Zm-16.41-1.88h14.53V18.05H312.53Z"/>
                <rect class="cls-5" x="308.19" y="24.37" width="23.21" height="1.88" transform="translate(75.8 233.59) rotate(-45.01)"/>
                <rect class="cls-5" x="318.85" y="13.71" width="1.88" height="23.21" transform="translate(75.76 233.54) rotate(-45)"/>
              </g>
              <path class="cls-5" d="M312.53,34.46h-18.3V16.17h18.3Zm-16.42-1.88h14.54V18.05H296.11Z"/>
              <g>
                <path class="cls-5" d="M296.11,34.46H277.82V16.17h18.29ZM279.7,32.58h14.53V18.05H279.7Z"/>
                <rect class="cls-5" x="275.36" y="24.37" width="23.21" height="1.88" transform="translate(66.15 210.33) rotate(-45)"/>
                <rect class="cls-5" x="286.02" y="13.71" width="1.88" height="23.21" transform="translate(66.15 210.33) rotate(-45)"/>
              </g>
              <g>
                <path class="cls-5" d="M279.7,34.46H261.4V16.17h18.3Zm-16.42-1.88h14.54V18.05H263.28Z"/>
                <rect class="cls-5" x="258.94" y="24.37" width="23.21" height="1.88" transform="translate(61.34 198.72) rotate(-45)"/>
                <rect class="cls-5" x="269.61" y="13.71" width="1.88" height="23.21" transform="translate(61.34 198.72) rotate(-45)"/>
              </g>
              <g>
                <path class="cls-5" d="M263.28,34.46H245V16.17h18.29Zm-16.41-1.88H261.4V18.05H246.87Z"/>
                <path class="cls-5" d="M245.93,34.46H229.51a.94.94,0,0,1-.66-1.6l16.41-16.42,1.33,1.33L231.78,32.58h13.76l16.14-16.14L263,17.77,246.59,34.19A.94.94,0,0,1,245.93,34.46Z"/>
                <rect class="cls-5" x="253.2" y="13.71" width="1.88" height="23.21" transform="translate(56.53 187.11) rotate(-45)"/>
              </g>
            </g>
          </g>
          <g>
            <path class="cls-5" d="M313,184.3H294.16V166H313Zm-16.87-1.88H311V167.88H296.1Z"/>
            <polygon class="cls-5" points="311.32 184.02 294.45 167.61 295.81 166.28 312.69 182.69 311.32 184.02"/>
            <polygon class="cls-5" points="295.81 184.02 294.45 182.69 311.32 166.28 312.69 167.61 295.81 184.02"/>
          </g>
          <g>
            <path class="cls-5" d="M313,250H294.16V231.66H313Zm-16.87-1.88H311V233.54H296.1Z"/>
            <polygon class="cls-5" points="311.32 249.68 294.45 233.26 295.81 231.94 312.69 248.35 311.32 249.68"/>
            <polygon class="cls-5" points="295.81 249.68 294.45 248.35 311.32 231.94 312.69 233.26 295.81 249.68"/>
          </g>
        </g>
        <g>
          <path class="cls-5" d="M313,199.16H294.16v-18.3H313Zm-16.87-1.88H311V182.74H296.1Z"/>
          <polygon class="cls-5" points="311.32 198.88 294.45 182.47 295.81 181.14 312.69 197.55 311.32 198.88"/>
          <polygon class="cls-5" points="295.81 198.88 294.45 197.55 311.32 181.14 312.69 182.47 295.81 198.88"/>
        </g>
        <g>
          <path class="cls-5" d="M313,215.57H294.16V197.28H313Zm-16.87-1.88H311V199.16H296.1Z"/>
          <polygon class="cls-5" points="311.32 215.29 294.45 198.88 295.81 197.55 312.69 213.97 311.32 215.29"/>
          <polygon class="cls-5" points="295.81 215.29 294.45 213.97 311.32 197.55 312.69 198.88 295.81 215.29"/>
        </g>
        <g>
          <path class="cls-5" d="M313,232H294.16V213.69H313ZM296.1,230.1H311V215.57H296.1Z"/>
          <polygon class="cls-5" points="311.32 231.71 294.45 215.29 295.81 213.97 312.69 230.38 311.32 231.71"/>
          <polygon class="cls-5" points="295.81 231.71 294.45 230.38 311.32 213.97 312.69 215.29 295.81 231.71"/>
        </g>
      </g>
    </g>
    <path class="cls-3" d="M103.1,99.55a1.56,1.56,0,0,0,0-3.11,1.56,1.56,0,0,0,0,3.11Z"/>
    <path class="cls-3" d="M271.79,67.06a1.56,1.56,0,0,0,0-3.11,1.56,1.56,0,0,0,0,3.11Z"/>
    <path class="cls-3" d="M341.62,178.37h.7a1.56,1.56,0,0,0,0-3.11h-.7a1.56,1.56,0,0,0,0,3.11Z"/>
    <path class="cls-3" d="M41.56,201.19a1.56,1.56,0,0,0,0-3.11,1.56,1.56,0,0,0,0,3.11Z"/>
    <path class="cls-3" d="M190.21,51.85a1.56,1.56,0,0,0,0-3.11,1.56,1.56,0,0,0,0,3.11Z"/>
  </g>
</svg>
